<mxfile host="Electron" modified="2024-09-14T07:27:50.405Z" agent="Mozilla/5.0 (Windows NT 10.0; Win64; x64) AppleWebKit/537.36 (KHTML, like Gecko) draw.io/24.1.0 Chrome/120.0.6099.109 Electron/28.1.0 Safari/537.36" etag="2Q9fqa1JjPrOYN1hi6SM" version="24.1.0" type="device">
  <diagram name="p1" id="9361dd3d-8414-5efd-6122-117bd74ce7a7">
    <mxGraphModel dx="1418" dy="820" grid="1" gridSize="10" guides="1" tooltips="1" connect="1" arrows="1" fold="1" page="0" pageScale="1.5" pageWidth="826" pageHeight="1169" background="none" math="0" shadow="0">
      <root>
        <mxCell id="0" />
        <mxCell id="1" parent="0" />
        <mxCell id="4Tx2nV5e4VXd4YdANbPT-79" value="" style="rounded=1;whiteSpace=wrap;html=1;fillColor=#d5e8d4;strokeColor=#82b366;gradientColor=#97d077;" parent="1" vertex="1">
          <mxGeometry x="340" y="347" width="460" height="450" as="geometry" />
        </mxCell>
        <mxCell id="4Tx2nV5e4VXd4YdANbPT-71" value="" style="edgeStyle=orthogonalEdgeStyle;rounded=0;orthogonalLoop=1;jettySize=auto;html=1;" parent="1" source="4Tx2nV5e4VXd4YdANbPT-69" target="4Tx2nV5e4VXd4YdANbPT-70" edge="1">
          <mxGeometry relative="1" as="geometry" />
        </mxCell>
        <mxCell id="4Tx2nV5e4VXd4YdANbPT-69" value="Main" style="rounded=1;whiteSpace=wrap;html=1;fillColor=#a20025;fontSize=24;fontColor=#ffffff;strokeColor=#6F0000;" parent="1" vertex="1">
          <mxGeometry x="400" y="90" width="120" height="50" as="geometry" />
        </mxCell>
        <mxCell id="4Tx2nV5e4VXd4YdANbPT-73" value="" style="edgeStyle=orthogonalEdgeStyle;rounded=1;orthogonalLoop=1;jettySize=auto;html=1;strokeColor=#FF0000;" parent="1" source="4Tx2nV5e4VXd4YdANbPT-70" target="4Tx2nV5e4VXd4YdANbPT-72" edge="1">
          <mxGeometry relative="1" as="geometry" />
        </mxCell>
        <mxCell id="4Tx2nV5e4VXd4YdANbPT-70" value="Postmaster" style="whiteSpace=wrap;html=1;fontSize=24;fillColor=#f8cecc;rounded=1;strokeColor=#b85450;" parent="1" vertex="1">
          <mxGeometry x="390" y="175" width="140" height="50" as="geometry" />
        </mxCell>
        <mxCell id="4Tx2nV5e4VXd4YdANbPT-81" value="" style="edgeStyle=orthogonalEdgeStyle;rounded=0;orthogonalLoop=1;jettySize=auto;html=1;entryX=0.5;entryY=0;entryDx=0;entryDy=0;" parent="1" source="4Tx2nV5e4VXd4YdANbPT-72" target="cQ2of3xFWmbDAOUYwszu-72" edge="1">
          <mxGeometry relative="1" as="geometry">
            <mxPoint x="460" y="360" as="targetPoint" />
          </mxGeometry>
        </mxCell>
        <mxCell id="4Tx2nV5e4VXd4YdANbPT-72" value="Postgres" style="whiteSpace=wrap;html=1;fontSize=24;fillColor=#fff2cc;rounded=1;strokeColor=#d6b656;" parent="1" vertex="1">
          <mxGeometry x="400" y="270" width="120" height="50" as="geometry" />
        </mxCell>
        <mxCell id="4Tx2nV5e4VXd4YdANbPT-74" value="Postgres" style="whiteSpace=wrap;html=1;fontSize=24;fillColor=#fff2cc;rounded=1;strokeColor=#d6b656;" parent="1" vertex="1">
          <mxGeometry x="580" y="270" width="120" height="50" as="geometry" />
        </mxCell>
        <mxCell id="4Tx2nV5e4VXd4YdANbPT-76" value="libpq" style="whiteSpace=wrap;html=1;fontSize=24;fillColor=#6a00ff;rounded=1;fontColor=#ffffff;strokeColor=#3700CC;" parent="1" vertex="1">
          <mxGeometry x="600" y="153" width="120" height="40" as="geometry" />
        </mxCell>
        <mxCell id="4Tx2nV5e4VXd4YdANbPT-77" value="" style="endArrow=classic;startArrow=classic;html=1;rounded=1;entryX=0;entryY=0.5;entryDx=0;entryDy=0;dashed=1;dashPattern=8 8;startFill=0;endFill=0;" parent="1" target="4Tx2nV5e4VXd4YdANbPT-76" edge="1">
          <mxGeometry width="50" height="50" relative="1" as="geometry">
            <mxPoint x="540" y="220" as="sourcePoint" />
            <mxPoint x="600" y="163" as="targetPoint" />
          </mxGeometry>
        </mxCell>
        <mxCell id="4Tx2nV5e4VXd4YdANbPT-78" value="" style="endArrow=classic;startArrow=classic;html=1;rounded=1;entryX=0.25;entryY=1;entryDx=0;entryDy=0;dashed=1;startFill=0;endFill=0;dashPattern=8 8;" parent="1" target="4Tx2nV5e4VXd4YdANbPT-76" edge="1">
          <mxGeometry width="50" height="50" relative="1" as="geometry">
            <mxPoint x="580" y="240" as="sourcePoint" />
            <mxPoint x="620.04" y="187" as="targetPoint" />
          </mxGeometry>
        </mxCell>
        <mxCell id="4Tx2nV5e4VXd4YdANbPT-83" value="" style="edgeStyle=orthogonalEdgeStyle;rounded=0;orthogonalLoop=1;jettySize=auto;html=1;" parent="1" source="4Tx2nV5e4VXd4YdANbPT-80" target="4Tx2nV5e4VXd4YdANbPT-82" edge="1">
          <mxGeometry relative="1" as="geometry" />
        </mxCell>
        <mxCell id="cQ2of3xFWmbDAOUYwszu-70" value="" style="edgeStyle=orthogonalEdgeStyle;rounded=0;orthogonalLoop=1;jettySize=auto;html=1;startArrow=classic;startFill=1;endArrow=none;endFill=0;" parent="1" source="4Tx2nV5e4VXd4YdANbPT-80" target="cQ2of3xFWmbDAOUYwszu-69" edge="1">
          <mxGeometry relative="1" as="geometry" />
        </mxCell>
        <mxCell id="cQ2of3xFWmbDAOUYwszu-77" value="" style="edgeStyle=orthogonalEdgeStyle;rounded=0;orthogonalLoop=1;jettySize=auto;html=1;" parent="1" source="4Tx2nV5e4VXd4YdANbPT-80" target="cQ2of3xFWmbDAOUYwszu-76" edge="1">
          <mxGeometry relative="1" as="geometry" />
        </mxCell>
        <mxCell id="4Tx2nV5e4VXd4YdANbPT-80" value="&lt;font style=&quot;font-size: 24px;&quot;&gt;rewriter&lt;/font&gt;" style="rounded=1;whiteSpace=wrap;html=1;fillColor=#fad9d5;sketch=1;curveFitting=1;jiggle=2;strokeColor=#ae4132;shadow=1;" parent="1" vertex="1">
          <mxGeometry x="400" y="550" width="120" height="50" as="geometry" />
        </mxCell>
        <mxCell id="4Tx2nV5e4VXd4YdANbPT-85" value="" style="edgeStyle=orthogonalEdgeStyle;rounded=0;orthogonalLoop=1;jettySize=auto;html=1;" parent="1" source="4Tx2nV5e4VXd4YdANbPT-82" target="4Tx2nV5e4VXd4YdANbPT-84" edge="1">
          <mxGeometry relative="1" as="geometry" />
        </mxCell>
        <mxCell id="4Tx2nV5e4VXd4YdANbPT-82" value="&lt;font style=&quot;font-size: 24px;&quot;&gt;optimizer&lt;/font&gt;" style="whiteSpace=wrap;html=1;fillColor=#f8cecc;strokeColor=#b85450;rounded=1;sketch=1;curveFitting=1;jiggle=2;shadow=1;" parent="1" vertex="1">
          <mxGeometry x="400" y="640" width="120" height="50" as="geometry" />
        </mxCell>
        <mxCell id="4Tx2nV5e4VXd4YdANbPT-84" value="&lt;font style=&quot;font-size: 24px;&quot;&gt;executor&lt;/font&gt;" style="whiteSpace=wrap;html=1;fillColor=#f8cecc;strokeColor=#b85450;rounded=1;sketch=1;curveFitting=1;jiggle=2;shadow=1;" parent="1" vertex="1">
          <mxGeometry x="400" y="730" width="120" height="51" as="geometry" />
        </mxCell>
        <mxCell id="cQ2of3xFWmbDAOUYwszu-69" value="&lt;font style=&quot;font-size: 24px;&quot;&gt;parser&lt;/font&gt;" style="rounded=1;whiteSpace=wrap;html=1;fillColor=#fad9d5;sketch=1;curveFitting=1;jiggle=2;strokeColor=#ae4132;shadow=1;" parent="1" vertex="1">
          <mxGeometry x="400" y="460" width="120" height="50" as="geometry" />
        </mxCell>
        <mxCell id="cQ2of3xFWmbDAOUYwszu-75" value="" style="edgeStyle=orthogonalEdgeStyle;rounded=0;orthogonalLoop=1;jettySize=auto;html=1;exitX=1;exitY=0.5;exitDx=0;exitDy=0;" parent="1" source="cQ2of3xFWmbDAOUYwszu-69" target="cQ2of3xFWmbDAOUYwszu-74" edge="1">
          <mxGeometry relative="1" as="geometry">
            <mxPoint x="530" y="485" as="sourcePoint" />
          </mxGeometry>
        </mxCell>
        <mxCell id="cQ2of3xFWmbDAOUYwszu-72" value="&lt;span style=&quot;font-size: 24px;&quot;&gt;tcop&lt;/span&gt;" style="rounded=1;whiteSpace=wrap;html=1;fillColor=#fad9d5;sketch=1;curveFitting=1;jiggle=2;strokeColor=#ae4132;shadow=1;" parent="1" vertex="1">
          <mxGeometry x="400" y="367" width="120" height="50" as="geometry" />
        </mxCell>
        <mxCell id="cQ2of3xFWmbDAOUYwszu-73" value="" style="edgeStyle=orthogonalEdgeStyle;rounded=0;orthogonalLoop=1;jettySize=auto;html=1;startArrow=classic;startFill=1;endArrow=none;endFill=0;" parent="1" edge="1">
          <mxGeometry relative="1" as="geometry">
            <mxPoint x="460" y="461" as="sourcePoint" />
            <mxPoint x="460" y="421" as="targetPoint" />
            <Array as="points">
              <mxPoint x="460" y="441" />
              <mxPoint x="460" y="441" />
            </Array>
          </mxGeometry>
        </mxCell>
        <mxCell id="cQ2of3xFWmbDAOUYwszu-74" value="&lt;font style=&quot;font-size: 20px;&quot;&gt;parse tree&lt;/font&gt;" style="rounded=1;whiteSpace=wrap;html=1;fillColor=#dae8fc;strokeColor=#6c8ebf;shadow=0;align=center;" parent="1" vertex="1">
          <mxGeometry x="560" y="460" width="130" height="50" as="geometry" />
        </mxCell>
        <mxCell id="cQ2of3xFWmbDAOUYwszu-76" value="&lt;font style=&quot;font-size: 20px;&quot;&gt;rewrite view or rule&lt;/font&gt;" style="rounded=1;whiteSpace=wrap;html=1;fillColor=#dae8fc;strokeColor=#6c8ebf;shadow=0;gradientColor=none;" parent="1" vertex="1">
          <mxGeometry x="560" y="550" width="180" height="50" as="geometry" />
        </mxCell>
        <mxCell id="cQ2of3xFWmbDAOUYwszu-80" value="" style="curved=1;endArrow=classic;html=1;rounded=0;dashed=1;strokeColor=#FF0000;" parent="1" edge="1">
          <mxGeometry width="50" height="50" relative="1" as="geometry">
            <mxPoint x="460" y="230" as="sourcePoint" />
            <mxPoint x="600" y="270" as="targetPoint" />
            <Array as="points">
              <mxPoint x="460" y="260" />
              <mxPoint x="490" y="230" />
              <mxPoint x="510" y="240" />
              <mxPoint x="550" y="220" />
            </Array>
          </mxGeometry>
        </mxCell>
        <mxCell id="QktKYvNRPqzT80jcHMMe-69" value="&lt;font style=&quot;font-size: 16px;&quot;&gt;multi-process&lt;/font&gt;" style="text;html=1;strokeColor=none;fillColor=none;align=center;verticalAlign=middle;whiteSpace=wrap;rounded=0;" parent="1" vertex="1">
          <mxGeometry x="600" y="234" width="100" height="30" as="geometry" />
        </mxCell>
        <mxCell id="B-_bRjnkBKYMeY1XbHVS-69" value="&lt;font style=&quot;font-size: 20px;&quot;&gt;execution engine&lt;/font&gt;" style="rounded=1;whiteSpace=wrap;html=1;fillColor=#dae8fc;strokeColor=#6c8ebf;shadow=0;gradientColor=none;fontFamily=Helvetica;align=center;" vertex="1" parent="1">
          <mxGeometry x="570" y="731" width="160" height="50" as="geometry" />
        </mxCell>
        <mxCell id="B-_bRjnkBKYMeY1XbHVS-72" value="" style="endArrow=classic;html=1;rounded=0;" edge="1" parent="1">
          <mxGeometry width="50" height="50" relative="1" as="geometry">
            <mxPoint x="520" y="760" as="sourcePoint" />
            <mxPoint x="570" y="760" as="targetPoint" />
          </mxGeometry>
        </mxCell>
      </root>
    </mxGraphModel>
  </diagram>
</mxfile>
